<?xml version="1.0" encoding="UTF-8"?><svg id="access" xmlns="http://www.w3.org/2000/svg" viewBox="0 0 120 120"><defs><style>.cls-1{fill:#fff;}.cls-1,.cls-2,.cls-3{stroke:#fff;stroke-linecap:round;stroke-linejoin:round;}.cls-1,.cls-3{stroke-width:3px;}.cls-2{stroke-width:2px;}.cls-2,.cls-3{fill:none;}</style></defs><line class="cls-3" x1="50.39" y1="103.21" x2="75.73" y2="103.21"/><path class="cls-3" d="M101.21,103.21h10.32c3.02,0,5.42-2.93,5.24-6.42-.47-8.9-2.58-23.92-11.43-23.92,0,0-1.05-37.62-30.42-37.62h-11.68c-16.78,0-14.55,0-14.55,0,0,0-20.98,1.21-26.23,37.62,0,0-12.09,0-17.46,22.65-.92,3.87,1.59,7.69,5.06,7.69h15.52"/><path class="cls-1" d="M32.43,71.05h27.28v-28.91s-27.28-2-27.28,28.91Z"/><path class="cls-1" d="M94.85,71.05h-27.28v-28.91s27.28-.81,27.28,28.91Z"/><circle class="cls-3" cx="37.91" cy="102.45" r="12.3"/><circle class="cls-3" cx="88.31" cy="102.45" r="12.3"/><path class="cls-2" d="M9.31,81.87c-1.92-.73-4.39,1.62-5.53,5.25s-.5,7.17,1.42,7.9"/></svg>