<?xml version="1.0" encoding="UTF-8"?><svg xmlns="http://www.w3.org/2000/svg" viewBox="0 0 116 114.63"><defs><style>.cls-1,.cls-2{fill:#fff;}.cls-3{fill:#088742;}.cls-4{fill:none;stroke-linecap:round;}.cls-4,.cls-2{stroke:#f20028;stroke-linejoin:round;stroke-width:2px;}.cls-5{fill:#e00030;}</style></defs><g id="_イヤー_3"><path class="cls-2" d="M13.14,113.56H96.49c17.36,1.65,27.78-24.79,6.95-28.09,6.95-6.61-5.21-29.75-26.05-19.83-1.74-9.92-27.78-16.53-34.73,0-15.63-11.56-34.73,6.62-27.78,18.18-10.42-1.65-24.31,19.83-1.74,29.75Z"/></g><g id="_イヤー_2"><g><path class="cls-5" d="M70.81,14.21C22.21,.7,19.6,39.81,20.66,70.59c1.06,30.78,3.37,28.75,10.02,30.06,6.65,1.31,53.67-14.42,66.35-41.99,12.94-28.11-21.46-43.46-26.21-44.46"/><path class="cls-3" d="M72.4,11.46L76.25,.39s.03-.03,.05-.02l6.57,3.57s.02,.03,.01,.05l-7.12,9.23s0,.05,.03,.05c4.98,0,11.23,1.06,14.36,6.45,2.17,5.5,15.3,10.48,17.2,11.18,.04,.01,.02,.06-.02,.06l-17.52-1.71s-.02,0-.03,.01l-.31,8.45s-9.7-8.83-9.71-8.85h0s-3.17-4.37-3.18-4.36l-12.98,3.48s-.05-.01-.04-.04l-2.46-7.22s-.98-3.21-.99-3.22l-22.58-4.89s-.03-.06,0-.06l14.61-.03s.04-.03,.03-.05L41.94,.05s.01-.07,.04-.04c6.17,4.62,17.74,7.7,22.84,6.56,2.37-.53,6.88,2.57,7.58,4.89"/><path class="cls-1" d="M39.99,26.49s-7.35,7.51-5.1,9.35,3.99,1.86,5.13,1.2c1.6-.94,2.22-8.7-.03-10.54Z"/><path class="cls-1" d="M33.14,47.8s-5.31,8.92-2.68,10.22c2.63,1.3,4.34,.94,5.27,.04,1.32-1.27,.04-8.96-2.59-10.26Z"/><path class="cls-1" d="M29.1,72.03s-5.68,8.71-3.1,10.11c2.58,1.4,4.3,1.1,5.27,.24,1.38-1.22,.41-8.95-2.16-10.35Z"/><path class="cls-1" d="M61.88,34.21s-7.45,7.42-5.22,9.28,3.97,1.91,5.11,1.26c1.61-.92,2.34-8.67,.12-10.54Z"/><path class="cls-1" d="M85.57,43.76s-8.25,6.6-6.26,8.69,3.73,2.31,4.94,1.78c1.71-.75,3.31-8.38,1.32-10.46Z"/><path class="cls-1" d="M72.34,63.43s-9.32,5.16-7.73,7.54c1.59,2.38,3.26,2.88,4.55,2.55,1.82-.46,4.77-7.71,3.18-10.09Z"/><path class="cls-1" d="M52.08,55.02s-7.35,7.51-5.1,9.35,3.99,1.86,5.13,1.2c1.6-.94,2.22-8.7-.03-10.54Z"/><path class="cls-1" d="M56.07,83.14s-10.44,2.63-9.56,5.32c.87,2.69,2.35,3.59,3.68,3.6,1.89,0,6.76-6.23,5.88-8.92Z"/><path class="cls-1" d="M41.71,75.94s-7.98,6.89-5.91,8.91,3.82,2.17,5,1.6c1.68-.81,2.98-8.49,.9-10.51Z"/></g></g><g id="_イヤー_4"><g><path class="cls-1" d="M45.31,99.64c-7.7-10.47,11.78-23.46,18.53-16.87-2.84-9.21,12.16-18.21,21.16-11.21,11.18,.07-17,21-17,21l-22.69,7.08Z"/><path class="cls-4" d="M44.83,98.92c-6.33-7.86,10.67-22.86,19.01-16.15-2.34-10.71,15.66-18.71,23.66-9.71"/></g></g></svg>