<?xml version="1.0" encoding="UTF-8"?><svg xmlns="http://www.w3.org/2000/svg" viewBox="0 0 600 50"><defs><style>.cls-1{fill:#fff;}.cls-2{fill:#088742;}.cls-3{fill:#f14153;}.cls-4{fill:#ff0;}</style></defs><g id="_イヤー_4"><rect class="cls-1" x="-27" y="-16" width="654" height="75"/></g><g id="_イヤー_2"><path class="cls-2" d="M600,32c-3.5-24.5-30-20-30-20,0,0-4-10-20-10s-20,10-20,10c-21.5-5.5-29.5,15.5-30,20-3.5-24.5-30-20-30-20,0,0-4-10-20-10s-20,10-20,10c-21.5-5.5-29.5,15.5-30,20-3.5-24.5-30-20-30-20,0,0-4-10-20-10s-20,10-20,10c-21.5-5.5-29.5,15.5-30,20-3.5-24.5-30-20-30-20,0,0-4-10-20-10s-20,10-20,10c-21.5-5.5-29.5,15.5-30,20-3.5-24.5-30-20-30-20,0,0-4-10-20-10s-20,10-20,10c-21.5-5.5-29.5,15.5-30,20-3.5-24.5-30-20-30-20,0,0-4-10-20-10S30,12,30,12C8.5,6.5,.5,27.5,0,32v50H600V32Z"/></g><g id="_イヤー_3"><g><ellipse class="cls-1" cx="18.33" cy="22.33" rx="4" ry="1.5"/><ellipse class="cls-1" cx="18.33" cy="22.33" rx="1.5" ry="4"/><circle class="cls-4" cx="18.33" cy="22.33" r="1.5"/></g><g><ellipse class="cls-1" cx="81.8" cy="21.63" rx="1.5" ry="4" transform="translate(11.56 68.81) rotate(-48.7)"/><ellipse class="cls-1" cx="81.8" cy="21.63" rx="4" ry="1.5" transform="translate(11.56 68.81) rotate(-48.7)"/><circle class="cls-4" cx="81.8" cy="21.63" r="1.5"/></g><g><ellipse class="cls-1" cx="31.74" cy="41.34" rx="1.5" ry="4" transform="translate(-11.61 12.41) rotate(-18.76)"/><ellipse class="cls-1" cx="31.74" cy="41.34" rx="4" ry="1.5" transform="translate(-11.61 12.41) rotate(-18.76)"/><circle class="cls-4" cx="31.74" cy="41.34" r="1.5"/></g><g><ellipse class="cls-1" cx="49.74" cy="17.34" rx="4" ry="1.5" transform="translate(-1.18 3.84) rotate(-4.36)"/><ellipse class="cls-1" cx="49.74" cy="17.34" rx="1.5" ry="4" transform="translate(-1.18 3.84) rotate(-4.36)"/><circle class="cls-4" cx="49.74" cy="17.34" r="1.5"/></g><g><ellipse class="cls-1" cx="72.74" cy="40.34" rx="1.5" ry="4" transform="translate(22.23 106.42) rotate(-81.61)"/><ellipse class="cls-1" cx="72.74" cy="40.34" rx="4" ry="1.5" transform="translate(22.23 106.42) rotate(-81.61)"/><circle class="cls-4" cx="72.74" cy="40.34" r="1.5"/></g><path class="cls-3" d="M10.6,37.07c5.37,1.04,1.17,8.37-1.52,7.86s-3.85-8.89,1.52-7.86Z"/><path class="cls-3" d="M16.71,38.98c3.8-1.24,3.76,5.09,1.86,5.71s-5.66-4.47-1.86-5.71Z"/><path class="cls-3" d="M49.36,32.92c3.88,.96,.5,6.3-1.44,5.82s-2.44-6.78,1.44-5.82Z"/><path class="cls-3" d="M61.32,37.09c4.8-1.06,4.09,7.11,1.69,7.64s-6.49-6.58-1.69-7.64Z"/><path class="cls-3" d="M42.21,31.86c3.96-.58,2.84,5.65,.86,5.94s-4.82-5.36-.86-5.94Z"/><path class="cls-3" d="M92.11,36.88c3.94-.71,3.03,5.55,1.06,5.91s-5-5.2-1.06-5.91Z"/><path class="cls-3" d="M88.64,37.83c4,0,2,6,0,6s-4-6,0-6Z"/><path class="cls-3" d="M84.05,37.86c3.96,.54,1.17,6.22-.81,5.94s-3.15-6.49,.81-5.94Z"/><g><ellipse class="cls-1" cx="118.33" cy="22.33" rx="4" ry="1.5"/><ellipse class="cls-1" cx="118.33" cy="22.33" rx="1.5" ry="4"/><circle class="cls-4" cx="118.33" cy="22.33" r="1.5"/></g><g><ellipse class="cls-1" cx="181.8" cy="21.63" rx="1.5" ry="4" transform="translate(45.56 143.93) rotate(-48.7)"/><ellipse class="cls-1" cx="181.8" cy="21.63" rx="4" ry="1.5" transform="translate(45.56 143.93) rotate(-48.7)"/><circle class="cls-4" cx="181.8" cy="21.63" r="1.5"/></g><g><ellipse class="cls-1" cx="131.74" cy="41.34" rx="1.5" ry="4" transform="translate(-6.3 44.58) rotate(-18.76)"/><ellipse class="cls-1" cx="131.74" cy="41.34" rx="4" ry="1.5" transform="translate(-6.3 44.58) rotate(-18.76)"/><circle class="cls-4" cx="131.74" cy="41.34" r="1.5"/></g><g><ellipse class="cls-1" cx="149.74" cy="17.34" rx="4" ry="1.5" transform="translate(-.89 11.44) rotate(-4.36)"/><ellipse class="cls-1" cx="149.74" cy="17.34" rx="1.5" ry="4" transform="translate(-.89 11.44) rotate(-4.36)"/><circle class="cls-4" cx="149.74" cy="17.34" r="1.5"/></g><g><ellipse class="cls-1" cx="172.74" cy="40.34" rx="1.5" ry="4" transform="translate(107.64 205.35) rotate(-81.61)"/><ellipse class="cls-1" cx="172.74" cy="40.34" rx="4" ry="1.5" transform="translate(107.64 205.35) rotate(-81.61)"/><circle class="cls-4" cx="172.74" cy="40.34" r="1.5"/></g><path class="cls-3" d="M110.6,37.07c5.37,1.04,1.17,8.37-1.52,7.86s-3.85-8.89,1.52-7.86Z"/><path class="cls-3" d="M116.71,38.98c3.8-1.24,3.76,5.09,1.86,5.71s-5.66-4.47-1.86-5.71Z"/><path class="cls-3" d="M149.36,32.92c3.88,.96,.5,6.3-1.44,5.82s-2.44-6.78,1.44-5.82Z"/><path class="cls-3" d="M161.32,37.09c4.8-1.06,4.09,7.11,1.69,7.64s-6.49-6.58-1.69-7.64Z"/><path class="cls-3" d="M142.21,31.86c3.96-.58,2.84,5.65,.86,5.94s-4.82-5.36-.86-5.94Z"/><path class="cls-3" d="M192.11,36.88c3.94-.71,3.03,5.55,1.06,5.91s-5-5.2-1.06-5.91Z"/><path class="cls-3" d="M188.64,37.83c4,0,2,6,0,6s-4-6,0-6Z"/><path class="cls-3" d="M184.05,37.86c3.96,.54,1.17,6.22-.81,5.94s-3.15-6.49,.81-5.94Z"/><g><ellipse class="cls-1" cx="218.33" cy="22.33" rx="4" ry="1.5"/><ellipse class="cls-1" cx="218.33" cy="22.33" rx="1.5" ry="4"/><circle class="cls-4" cx="218.33" cy="22.33" r="1.5"/></g><g><ellipse class="cls-1" cx="281.8" cy="21.63" rx="1.5" ry="4" transform="translate(79.56 219.06) rotate(-48.7)"/><ellipse class="cls-1" cx="281.8" cy="21.63" rx="4" ry="1.5" transform="translate(79.56 219.06) rotate(-48.7)"/><circle class="cls-4" cx="281.8" cy="21.63" r="1.5"/></g><g><ellipse class="cls-1" cx="231.74" cy="41.34" rx="1.5" ry="4" transform="translate(-.98 76.74) rotate(-18.76)"/><ellipse class="cls-1" cx="231.74" cy="41.34" rx="4" ry="1.5" transform="translate(-.98 76.74) rotate(-18.76)"/><circle class="cls-4" cx="231.74" cy="41.34" r="1.5"/></g><g><ellipse class="cls-1" cx="249.74" cy="17.34" rx="4" ry="1.5" transform="translate(-.6 19.05) rotate(-4.36)"/><ellipse class="cls-1" cx="249.74" cy="17.34" rx="1.5" ry="4" transform="translate(-.6 19.05) rotate(-4.36)"/><circle class="cls-4" cx="249.74" cy="17.34" r="1.5"/></g><g><ellipse class="cls-1" cx="272.74" cy="40.34" rx="1.5" ry="4" transform="translate(193.05 304.28) rotate(-81.61)"/><ellipse class="cls-1" cx="272.74" cy="40.34" rx="4" ry="1.5" transform="translate(193.05 304.28) rotate(-81.61)"/><circle class="cls-4" cx="272.74" cy="40.34" r="1.5"/></g><path class="cls-3" d="M210.6,37.07c5.37,1.04,1.17,8.37-1.52,7.86s-3.85-8.89,1.52-7.86Z"/><path class="cls-3" d="M216.71,38.98c3.8-1.24,3.76,5.09,1.86,5.71s-5.66-4.47-1.86-5.71Z"/><path class="cls-3" d="M249.36,32.92c3.88,.96,.5,6.3-1.44,5.82s-2.44-6.78,1.44-5.82Z"/><path class="cls-3" d="M261.32,37.09c4.8-1.06,4.09,7.11,1.69,7.64s-6.49-6.58-1.69-7.64Z"/><path class="cls-3" d="M242.21,31.86c3.96-.58,2.84,5.65,.86,5.94s-4.82-5.36-.86-5.94Z"/><path class="cls-3" d="M292.11,36.88c3.94-.71,3.03,5.55,1.06,5.91s-5-5.2-1.06-5.91Z"/><path class="cls-3" d="M288.64,37.83c4,0,2,6,0,6s-4-6,0-6Z"/><path class="cls-3" d="M284.05,37.86c3.96,.54,1.17,6.22-.81,5.94s-3.15-6.49,.81-5.94Z"/><g><ellipse class="cls-1" cx="318.33" cy="22.33" rx="4" ry="1.5"/><ellipse class="cls-1" cx="318.33" cy="22.33" rx="1.5" ry="4"/><circle class="cls-4" cx="318.33" cy="22.33" r="1.5"/></g><g><ellipse class="cls-1" cx="381.8" cy="21.63" rx="1.5" ry="4" transform="translate(113.56 294.19) rotate(-48.7)"/><ellipse class="cls-1" cx="381.8" cy="21.63" rx="4" ry="1.5" transform="translate(113.56 294.19) rotate(-48.7)"/><circle class="cls-4" cx="381.8" cy="21.63" r="1.5"/></g><g><ellipse class="cls-1" cx="331.74" cy="41.34" rx="1.5" ry="4" transform="translate(4.33 108.91) rotate(-18.76)"/><ellipse class="cls-1" cx="331.74" cy="41.34" rx="4" ry="1.5" transform="translate(4.33 108.91) rotate(-18.76)"/><circle class="cls-4" cx="331.74" cy="41.34" r="1.5"/></g><g><ellipse class="cls-1" cx="349.74" cy="17.34" rx="4" ry="1.5" transform="translate(-.31 26.66) rotate(-4.36)"/><ellipse class="cls-1" cx="349.74" cy="17.34" rx="1.5" ry="4" transform="translate(-.31 26.66) rotate(-4.36)"/><circle class="cls-4" cx="349.74" cy="17.34" r="1.5"/></g><g><ellipse class="cls-1" cx="372.74" cy="40.34" rx="1.5" ry="4" transform="translate(278.47 403.21) rotate(-81.61)"/><ellipse class="cls-1" cx="372.74" cy="40.34" rx="4" ry="1.5" transform="translate(278.47 403.21) rotate(-81.61)"/><circle class="cls-4" cx="372.74" cy="40.34" r="1.5"/></g><path class="cls-3" d="M310.6,37.07c5.37,1.04,1.17,8.37-1.52,7.86s-3.85-8.89,1.52-7.86Z"/><path class="cls-3" d="M316.71,38.98c3.8-1.24,3.76,5.09,1.86,5.71s-5.66-4.47-1.86-5.71Z"/><path class="cls-3" d="M349.36,32.92c3.88,.96,.5,6.3-1.44,5.82s-2.44-6.78,1.44-5.82Z"/><path class="cls-3" d="M361.32,37.09c4.8-1.06,4.09,7.11,1.69,7.64s-6.49-6.58-1.69-7.64Z"/><path class="cls-3" d="M342.21,31.86c3.96-.58,2.84,5.65,.86,5.94s-4.82-5.36-.86-5.94Z"/><path class="cls-3" d="M392.11,36.88c3.94-.71,3.03,5.55,1.06,5.91s-5-5.2-1.06-5.91Z"/><path class="cls-3" d="M388.64,37.83c4,0,2,6,0,6s-4-6,0-6Z"/><path class="cls-3" d="M384.05,37.86c3.96,.54,1.17,6.22-.81,5.94s-3.15-6.49,.81-5.94Z"/><g><ellipse class="cls-1" cx="418.33" cy="22.33" rx="4" ry="1.5"/><ellipse class="cls-1" cx="418.33" cy="22.33" rx="1.5" ry="4"/><circle class="cls-4" cx="418.33" cy="22.33" r="1.5"/></g><g><ellipse class="cls-1" cx="481.8" cy="21.63" rx="1.5" ry="4" transform="translate(147.56 369.31) rotate(-48.7)"/><ellipse class="cls-1" cx="481.8" cy="21.63" rx="4" ry="1.5" transform="translate(147.56 369.31) rotate(-48.7)"/><circle class="cls-4" cx="481.8" cy="21.63" r="1.5"/></g><g><ellipse class="cls-1" cx="431.74" cy="41.34" rx="1.5" ry="4" transform="translate(9.65 141.08) rotate(-18.76)"/><ellipse class="cls-1" cx="431.74" cy="41.34" rx="4" ry="1.5" transform="translate(9.65 141.08) rotate(-18.76)"/><circle class="cls-4" cx="431.74" cy="41.34" r="1.5"/></g><g><ellipse class="cls-1" cx="449.74" cy="17.34" rx="4" ry="1.5" transform="translate(-.02 34.27) rotate(-4.36)"/><ellipse class="cls-1" cx="449.74" cy="17.34" rx="1.5" ry="4" transform="translate(-.02 34.27) rotate(-4.36)"/><circle class="cls-4" cx="449.74" cy="17.34" r="1.5"/></g><g><ellipse class="cls-1" cx="472.74" cy="40.34" rx="1.5" ry="4" transform="translate(363.88 502.15) rotate(-81.61)"/><ellipse class="cls-1" cx="472.74" cy="40.34" rx="4" ry="1.5" transform="translate(363.88 502.15) rotate(-81.61)"/><circle class="cls-4" cx="472.74" cy="40.34" r="1.5"/></g><path class="cls-3" d="M410.6,37.07c5.37,1.04,1.17,8.37-1.52,7.86s-3.85-8.89,1.52-7.86Z"/><path class="cls-3" d="M416.71,38.98c3.8-1.24,3.76,5.09,1.86,5.71s-5.66-4.47-1.86-5.71Z"/><path class="cls-3" d="M449.36,32.92c3.88,.96,.5,6.3-1.44,5.82s-2.44-6.78,1.44-5.82Z"/><path class="cls-3" d="M461.32,37.09c4.8-1.06,4.09,7.11,1.69,7.64s-6.49-6.58-1.69-7.64Z"/><path class="cls-3" d="M442.21,31.86c3.96-.58,2.84,5.65,.86,5.94s-4.82-5.36-.86-5.94Z"/><path class="cls-3" d="M492.11,36.88c3.94-.71,3.03,5.55,1.06,5.91s-5-5.2-1.06-5.91Z"/><path class="cls-3" d="M488.64,37.83c4,0,2,6,0,6s-4-6,0-6Z"/><path class="cls-3" d="M484.05,37.86c3.96,.54,1.17,6.22-.81,5.94s-3.15-6.49,.81-5.94Z"/><g><ellipse class="cls-1" cx="518.33" cy="22.33" rx="4" ry="1.5"/><ellipse class="cls-1" cx="518.33" cy="22.33" rx="1.5" ry="4"/><circle class="cls-4" cx="518.33" cy="22.33" r="1.5"/></g><g><ellipse class="cls-1" cx="581.8" cy="21.63" rx="1.5" ry="4" transform="translate(181.56 444.44) rotate(-48.7)"/><ellipse class="cls-1" cx="581.8" cy="21.63" rx="4" ry="1.5" transform="translate(181.56 444.44) rotate(-48.7)"/><circle class="cls-4" cx="581.8" cy="21.63" r="1.5"/></g><g><ellipse class="cls-1" cx="531.74" cy="41.34" rx="1.5" ry="4" transform="translate(14.96 173.25) rotate(-18.76)"/><ellipse class="cls-1" cx="531.74" cy="41.34" rx="4" ry="1.5" transform="translate(14.96 173.25) rotate(-18.76)"/><circle class="cls-4" cx="531.74" cy="41.34" r="1.5"/></g><g><ellipse class="cls-1" cx="549.74" cy="17.34" rx="4" ry="1.5" transform="translate(.27 41.88) rotate(-4.36)"/><ellipse class="cls-1" cx="549.74" cy="17.34" rx="1.5" ry="4" transform="translate(.27 41.88) rotate(-4.36)"/><circle class="cls-4" cx="549.74" cy="17.34" r="1.5"/></g><g><ellipse class="cls-1" cx="572.74" cy="40.34" rx="1.5" ry="4" transform="translate(449.3 601.08) rotate(-81.61)"/><ellipse class="cls-1" cx="572.74" cy="40.34" rx="4" ry="1.5" transform="translate(449.3 601.08) rotate(-81.61)"/><circle class="cls-4" cx="572.74" cy="40.34" r="1.5"/></g><path class="cls-3" d="M510.6,37.07c5.37,1.04,1.17,8.37-1.52,7.86s-3.85-8.89,1.52-7.86Z"/><path class="cls-3" d="M516.71,38.98c3.8-1.24,3.76,5.09,1.86,5.71s-5.66-4.47-1.86-5.71Z"/><path class="cls-3" d="M549.36,32.92c3.88,.96,.5,6.3-1.44,5.82s-2.44-6.78,1.44-5.82Z"/><path class="cls-3" d="M561.32,37.09c4.8-1.06,4.09,7.11,1.69,7.64s-6.49-6.58-1.69-7.64Z"/><path class="cls-3" d="M542.21,31.86c3.96-.58,2.84,5.65,.86,5.94s-4.82-5.36-.86-5.94Z"/><path class="cls-3" d="M592.11,36.88c3.94-.71,3.03,5.55,1.06,5.91s-5-5.2-1.06-5.91Z"/><path class="cls-3" d="M588.64,37.83c4,0,2,6,0,6s-4-6,0-6Z"/><path class="cls-3" d="M584.05,37.86c3.96,.54,1.17,6.22-.81,5.94s-3.15-6.49,.81-5.94Z"/></g></svg>