<?xml version="1.0" encoding="UTF-8"?><svg id="home" xmlns="http://www.w3.org/2000/svg" viewBox="0 0 120 120"><defs><style>.cls-1{fill:#fff;}</style></defs><path class="cls-1" d="M58.53,4.39L3.99,52.42c-1.53,1.35-.58,3.88,1.47,3.88H22.86c1.22,0,2.22,.99,2.22,2.22v55.43c0,1.22,.99,2.22,2.22,2.22h12.23c1.2,0,2.19-.95,2.22-2.15,.06-2.47,.21-7.48,.59-17.05,.48-15.16,2.14-30.12,17.66-30.12s17.18,14.97,17.66,30.12c.38,9.57,.53,14.58,.59,17.05,.03,1.2,1.01,2.15,2.22,2.15h12.23c1.22,0,2.22-.99,2.22-2.22V58.52c0-1.22,.99-2.22,2.22-2.22h17.41c2.04,0,3-2.53,1.47-3.88L61.47,4.39c-.84-.74-2.09-.74-2.93,0Z"/></svg>