<?xml version="1.0" encoding="UTF-8"?><svg id="_イヤー_4" xmlns="http://www.w3.org/2000/svg" viewBox="0 0 289.97 85.31"><defs><style>.cls-1,.cls-2{fill:#fff;}.cls-3{fill:#088742;}.cls-4{fill:none;stroke-linecap:round;}.cls-4,.cls-2{stroke:#f20028;stroke-linejoin:round;}.cls-4,.cls-2,.cls-5{stroke-width:2px;}.cls-5{stroke:#000;stroke-miterlimit:10;}.cls-6{fill:#e00030;}</style></defs><g><path class="cls-2" d="M9.73,84.04h59.95c12.49,1.19,19.98-17.83,5-20.21,5-4.75-3.75-21.4-18.74-14.26-1.25-7.13-19.98-11.89-24.98,0-11.24-8.32-24.98,4.76-19.98,13.08-7.49-1.19-17.49,14.26-1.25,21.4Z"/><g><path class="cls-6" d="M51.22,12.59C16.25,2.86,14.38,31,15.14,53.14c.76,22.14,2.42,20.68,7.2,21.62,4.78,.94,38.6-10.37,47.73-30.2,9.31-20.22-15.44-31.26-18.85-31.98"/><path class="cls-3" d="M52.36,10.61l2.77-7.96s.02-.02,.03-.01l4.72,2.57s.02,.02,0,.03l-5.12,6.64s0,.04,.02,.04c3.58,0,8.08,.76,10.33,4.64,1.56,3.96,11,7.54,12.37,8.04,.03,0,.01,.04-.02,.04l-12.6-1.23s-.02,0-.02,.01l-.22,6.08s-6.98-6.35-6.98-6.37h0s-2.28-3.14-2.29-3.14l-9.34,2.5s-.04,0-.03-.03l-1.77-5.19s-.7-2.31-.71-2.31l-16.24-3.52s-.02-.05,0-.05l10.51-.02s.03-.02,.02-.04L30.45,2.4s0-.05,.03-.03c4.44,3.32,12.76,5.54,16.43,4.72,1.7-.38,4.95,1.85,5.45,3.52"/><path class="cls-1" d="M29.04,21.42s-5.28,5.4-3.67,6.72,2.87,1.34,3.69,.86c1.15-.68,1.6-6.26-.02-7.58Z"/><path class="cls-1" d="M24.12,36.75s-3.82,6.42-1.93,7.35c1.89,.94,3.12,.67,3.79,.03,.95-.91,.03-6.45-1.87-7.38Z"/><path class="cls-1" d="M21.21,54.17s-4.09,6.27-2.23,7.27c1.85,1.01,3.09,.79,3.79,.17,.99-.88,.3-6.44-1.56-7.44Z"/><path class="cls-1" d="M44.79,26.97s-5.36,5.33-3.76,6.68,2.86,1.38,3.67,.91c1.16-.66,1.68-6.24,.08-7.58Z"/><path class="cls-1" d="M61.83,33.84s-5.94,4.75-4.5,6.25,2.68,1.66,3.55,1.28c1.23-.54,2.38-6.03,.95-7.53Z"/><path class="cls-1" d="M52.31,47.99s-6.71,3.72-5.56,5.42,2.35,2.07,3.27,1.83c1.31-.33,3.43-5.55,2.29-7.26Z"/><path class="cls-1" d="M37.74,41.94s-5.28,5.4-3.67,6.72,2.87,1.34,3.69,.86c1.15-.68,1.6-6.26-.02-7.58Z"/><path class="cls-1" d="M40.61,62.16s-7.51,1.89-6.88,3.83,1.69,2.58,2.65,2.59c1.36,0,4.86-4.48,4.23-6.42Z"/><path class="cls-1" d="M30.28,56.99s-5.74,4.96-4.25,6.41,2.75,1.56,3.6,1.15c1.21-.59,2.14-6.11,.65-7.56Z"/></g><g><path class="cls-1" d="M32.87,74.03c-5.54-7.53,8.47-16.87,13.33-12.13-2.04-6.63,8.75-13.1,15.22-8.06,8.04,.05-12.23,15.11-12.23,15.11l-16.32,5.09Z"/><path class="cls-4" d="M32.53,73.51c-4.55-5.65,7.68-16.44,13.67-11.62-1.68-7.71,11.26-13.46,17.02-6.99"/></g></g><path class="cls-5" d="M133.54,57.22h-13.9c-1.26,0-2.06,1.39-1.41,2.47,4.17,6.86,10.14,11.89,16.71,15.48,.85,.47,1.16,1.58,.59,2.37-.61,.85-1.04,1.97-1.29,3.19s-1.59,1.69-2.55,1c-5.42-3.9-10.92-10.27-15.12-17.41-.85-1.44-3.04-.85-3.04,.82v17.55c0,.9-.73,1.63-1.63,1.63h-.26c-.9,0-1.63-.73-1.63-1.63v-17.71c0-1.65-2.17-2.26-3.02-.84-4.23,7.09-9.7,13.2-14.95,17.17-.83,.63-2.07,.32-2.46-.65-.48-1.19-1.32-2.12-2.09-2.87s-.63-2.02,.3-2.57c5.92-3.48,13.01-8.63,17.45-15.5,.69-1.07-.11-2.49-1.39-2.49h-13.6c-.9,0-1.63-.73-1.63-1.63v-2.05c0-.9,.73-1.63,1.63-1.63h18.12c.9,0,1.63-.73,1.63-1.63v-5.9c0-.96,.83-1.71,1.79-1.62l2.77,.26c-.03,.41-.15,.74-.39,.95-.38,.34-.65,.79-.65,1.3v5.01c0,.9,.73,1.63,1.63,1.63h18.37c.9,0,1.63,.73,1.63,1.63v2.05c0,.9-.73,1.63-1.63,1.63Zm-15.09-16.67v1.27c0,.9-.73,1.63-1.63,1.63h0c-.9,0-1.63-.73-1.63-1.63V10.32c0-.9,.73-1.63,1.63-1.63h14.96c.9,0,1.63,.73,1.63,1.63v30.46c0,.9-.73,1.63-1.63,1.63h-.1c-.9,0-1.63-.73-1.63-1.63v-.22c0-.9-.73-1.63-1.63-1.63h-8.33c-.9,0-1.63,.73-1.63,1.63Zm9.96-26.72h-8.33c-.9,0-1.63,.73-1.63,1.63v16.6c0,.9,.73,1.63,1.63,1.63h8.33c.9,0,1.63-.73,1.63-1.63V15.46c0-.9-.73-1.63-1.63-1.63Z"/><path class="cls-5" d="M112.29,14.14c.74,.39,1.07,1.28,.75,2.05-.06,.14-.11,.27-.17,.41-6.94,16.65-9.67,22.51-11.77,24.13-1.89,1.42-3.21,1.19-6.02,.11-.69-.27-1.48-.57-2.31-.92-.74-.31-1.15-1.11-.96-1.88,.14-.57,.27-1.16,.36-1.75,.17-1.07,1.31-1.68,2.29-1.22,1.42,.66,2.62,1.12,3.25,1.37,.59,.22,1,.2,1.51-.26,1.18-.89,3.3-5.18,8.02-16.59,.35-.85-.06-1.82-.92-2.15l-5.04-1.94c-.77-.3-1.64,.04-2.03,.77-5.4,10.25-11.25,17.26-18.32,20.26-.88,.37-1.89-.11-2.18-1.02-.14-.44-.29-.89-.45-1.33-.3-.83,.13-1.74,.95-2.05,6.2-2.38,11.31-8.28,16.01-16.99,.46-.86,.05-1.93-.86-2.28l-5.42-2.09c-.84-.32-1.26-1.27-.94-2.11l.74-1.92c.32-.84,1.27-1.26,2.11-.94l6.17,2.37c.81,.31,1.72-.06,2.07-.85,.76-1.71,1.49-3.47,2.25-5.33,.36-.87,1.37-1.26,2.22-.85l3.14,1.52c-.15,.39-.41,.64-.75,.73-.51,.15-.94,.47-1.14,.96-.61,1.45-1.24,2.89-1.85,4.27-.38,.85,.03,1.85,.9,2.18l7.67,2.95c.06,.02,.12,.05,.18,.08l.54,.29Z"/><path class="cls-5" d="M159.18,22.1c-.07,.41-.25,.74-.55,.94-.32,.21-.57,.51-.61,.89-1.39,11.94-4.22,20.84-14.92,25.65-.49,.22-1.07,0-1.33-.47-.86-1.56-2.86-4.19-4.01-5.77-.4-.55-.16-1.32,.47-1.56,9.57-3.73,15.08-8.58,16.29-19.35,.07-.59,.61-1.02,1.2-.92l3.47,.6Zm6.11,36.84v16.15c0,.57,.46,1.03,1.03,1.03h19.42c.57,0,1.03,.46,1.03,1.03v3.43c0,.57-.46,1.03-1.03,1.03h-44.16c-.57,0-1.03-.46-1.03-1.03v-3.43c0-.57,.46-1.03,1.03-1.03h19.11c.57,0,1.03-.46,1.03-1.03v-16.15c0-.57-.46-1.03-1.03-1.03h-13.52c-.57,0-1.03-.46-1.03-1.03v-3.34c0-.57,.46-1.03,1.03-1.03h33.29c.57,0,1.03,.46,1.03,1.03v3.34c0,.57-.46,1.03-1.03,1.03h-14.14c-.57,0-1.03,.46-1.03,1.03Zm-20.08-38.6v9.88c0,.57-.46,1.03-1.03,1.03h-1.41c-.57,0-1.03-.46-1.03-1.03V14.94c0-.57,.46-1.03,1.03-1.03h17.74c.63,0,1.12-.57,1.02-1.19l-1.33-8.29c-.1-.62,.38-1.19,1.02-1.19h4.48c1.16,0,1.44,1.65,.33,1.99h-.02s-1,.97-1,1.01l.25,6.68c.02,.55,.47,.99,1.03,.99h18.17c.57,0,1.03,.46,1.03,1.03v15.28c0,.57-.46,1.03-1.03,1.03h-1.51c-.57,0-1.03-.46-1.03-1.03v-9.88c0-.57-.46-1.03-1.03-1.03h-34.64c-.57,0-1.03,.46-1.03,1.03Zm19.85,2.82c-.03-.53,.34-.99,.86-1.08l6.25-1.03c-.04,.44-.18,.78-.52,1.01l-.51,.85v15.31c0,2.09,.36,2.53,2.64,2.53h7.82c1.46,0,.55-1.06,.41-4.82-.03-.71,.65-1.25,1.33-1.03,1.41,.45,3.55,.85,4.8,1.12,.5,.11,.85,.57,.8,1.08-.61,6.56-3.71,8.79-6.93,8.79h-8.54c-4.61,0-7.46-1.64-7.46-7.65l-.94-15.07Z"/><path class="cls-5" d="M200,81.24c-.38-.92,1.09-3.06,2.3-3.19l.56-.06c1.06-.12,1.86-1.01,1.86-2.08v-10.94c0-1.15-.94-2.09-2.09-2.09h-1.45c-1.08,0-1.96,.81-2.08,1.88-.6,5.71-1.26,11.42-3.1,16.48-1,2-2,2-3.79,1l-1.09-.98c-1.13-1.02-.86-1.57-.5-2.4,3.93-9.04,5.81-19.76,5.81-28.26v-9.06c0-1.15,.94-2.09,2.09-2.09h36.71c1.15,0,2.09,.94,2.09,2.09v.35c0,1.15-.94,2.09-2.09,2.09h-33.34c-1.15,0-2.09,.94-2.09,2.09v4.62c0,1.71-.03,3.57-.1,5.49-.05,1.18,.9,2.17,2.09,2.17h34.9c1.15,0,2.09,.94,2.09,2.09v.35c0,1.15-.94,2.09-2.09,2.09h-15.59c-1.61,0-2.62,1.75-1.81,3.15,.73,1.26,1.54,2.44,2.44,3.53,.69,.84,1.91,1.02,2.81,.4,2.26-1.58,4.77-3.55,6.78-5.32,.94-.82,2.37-.66,3.09,.36l1.53,2.16c-.16,.26-.36,.44-.67,.44-.1,0-.26,0-.41-.09-1.54,1.15-3.96,2.53-6.33,3.83-1.62,.89-1.37,3.27,.4,3.83,2.7,.86,5.9,1.28,8.88,1.65,1.5,.19,2.31,1.87,1.52,3.16-.59,.96-1.2,2-1.65,2.9s-1.47,1.35-2.44,1.08c-10.03-2.79-17.26-9.72-20.97-21.07h-4.02c-1.15,0-2.09,.94-2.09,2.09v9.99c0,1.26,1.1,2.24,2.35,2.07,2.53-.33,5.19-.66,7.85-1.02,1.25-.17,2.37,.81,2.37,2.07v.28c0,1.02-.73,1.89-1.73,2.06-5.91,1.02-12.73,2.81-16.98,2.81-1,0-1.73-1.35-2-2ZM233.03,12.08v20.39c0,1.15-.94,2.09-2.09,2.09h-31.53c-1.15,0-2.09-.94-2.09-2.09V12.08c0-1.15,.94-2.09,2.09-2.09h6.27c1.15,0,2.09-.94,2.09-2.09v-2.26c0-1.25,1.09-2.22,2.34-2.08l2.06,.25c-.03,.35-.13,.64-.33,.84-.37,.37-.65,.81-.65,1.33v1.92c0,1.15,.94,2.09,2.09,2.09h3.53c1.15,0,2.09-.94,2.09-2.09v-2.27c0-1.25,1.09-2.22,2.33-2.08l2.17,.25c-.03,.36-.15,.67-.39,.89-.41,.39-.64,.93-.64,1.5v1.71c0,1.15,.94,2.09,2.09,2.09h6.48c1.15,0,2.09,.94,2.09,2.09Zm-32.5,4.18v1.92c0,1.15,.94,2.09,2.09,2.09h3.06c1.15,0,2.09-.94,2.09-2.09v-1.92c0-1.15-.94-2.09-2.09-2.09h-3.06c-1.15,0-2.09,.94-2.09,2.09Zm0,10.11v1.92c0,1.15,.94,2.09,2.09,2.09h3.06c1.15,0,2.09-.94,2.09-2.09v-1.92c0-1.15-.94-2.09-2.09-2.09h-3.06c-1.15,0-2.09,.94-2.09,2.09Zm30.1,26.84h-25.73c-1.15,0-2.09-.94-2.09-2.09h0c0-1.16,.94-2.09,2.09-2.09h25.73c1.15,0,2.09,.94,2.09,2.09h0c0,1.16-.94,2.09-2.09,2.09Zm-13.82-39.03h-3.53c-1.15,0-2.09,.94-2.09,2.09v1.92c0,1.15,.94,2.09,2.09,2.09h3.53c1.15,0,2.09-.94,2.09-2.09v-1.92c0-1.15-.94-2.09-2.09-2.09Zm0,10.11h-3.53c-1.15,0-2.09,.94-2.09,2.09v1.92c0,1.15,.94,2.09,2.09,2.09h3.53c1.15,0,2.09-.94,2.09-2.09v-1.92c0-1.15-.94-2.09-2.09-2.09Zm12.86-6.1v-1.92c0-1.15-.94-2.09-2.09-2.09h-3.12c-1.15,0-2.09,.94-2.09,2.09v1.92c0,1.15,.94,2.09,2.09,2.09h3.12c1.15,0,2.09-.94,2.09-2.09Zm0,10.11v-1.92c0-1.15-.94-2.09-2.09-2.09h-3.12c-1.15,0-2.09,.94-2.09,2.09v1.92c0,1.15,.94,2.09,2.09,2.09h3.12c1.15,0,2.09-.94,2.09-2.09Z"/><path class="cls-5" d="M246.92,7.29h40.47c.87,0,1.58,.71,1.58,1.58V82.74c0,.87-.71,1.58-1.58,1.58h-.26c-.87,0-1.58-.71-1.58-1.58v-.68c0-.87-.71-1.58-1.58-1.58h-33.75c-.87,0-1.58,.71-1.58,1.58v.68c0,.87-.71,1.58-1.58,1.58h-.16c-.87,0-1.58-.71-1.58-1.58V8.87c0-.87,.71-1.58,1.58-1.58Zm3.31,67.79h33.75c.87,0,1.58-.71,1.58-1.58V14.27c0-.87-.71-1.58-1.58-1.58h-33.75c-.87,0-1.58,.71-1.58,1.58v59.23c0,.87,.71,1.58,1.58,1.58Zm20.07-19.88c.54,.87,1.12,1.72,1.75,2.55s1.78,.84,2.44,.1c1.47-1.65,3-3.54,4.21-5.16,.55-.74,1.62-.84,2.31-.23l1.98,1.78c-.11,.25-.56,.42-.99,.49-.35,.06-.66,.25-.89,.51-1.32,1.48-3.18,3.22-4.9,4.85-.67,.63-.66,1.71,.03,2.33,1.91,1.71,4.04,3.19,6.08,4.28,.83,.44,1.11,1.49,.58,2.27-.4,.59-.82,1.25-1.18,1.86-.45,.77-1.47,1.02-2.22,.52-3.26-2.18-6.21-5.74-8.81-9.73-.86-1.32-2.9-.72-2.9,.86v8.4c0,.87-.71,1.58-1.58,1.58h0c-.87,0-1.58-.71-1.58-1.58v-7.49c0-1.53-1.96-2.17-2.86-.92-2.01,2.78-3.95,5.64-6.21,7.6-.76,.66-1.92,.46-2.41-.42-.69-1.23-1.64-2.85-2.33-4.03-.45-.76-.19-1.74,.58-2.17,3.71-2.07,7.93-4.57,11.24-8.03,.95-1,.22-2.66-1.16-2.66h-4.27c-.87,0-1.58-.71-1.58-1.58v-11.57c0-.87,.71-1.58,1.58-1.58h19.67c.87,0,1.58,.71,1.58,1.58v11.57c0,.87-.71,1.58-1.58,1.58h-5.25c-1.25,0-1.99,1.37-1.33,2.43Zm12.41-23.94v.85c0,.87-.71,1.58-1.58,1.58h-28.16c-.87,0-1.58-.71-1.58-1.58v-.85c0-.87,.71-1.58,1.58-1.58h10.77c.87,0,1.58-.71,1.58-1.58v-2.68c0-.87-.71-1.58-1.58-1.58h-7.5c-.87,0-1.58-.71-1.58-1.58v-.76c0-.87,.71-1.58,1.58-1.58h7.5c.87,0,1.58-.71,1.58-1.58v-1.95c0-.95,.83-1.68,1.77-1.57l2.47,.3c-.03,.34-.15,.64-.41,.86-.36,.3-.57,.74-.57,1.21v1.15c0,.87,.71,1.58,1.58,1.58h7.87c.87,0,1.58,.71,1.58,1.58v.76c0,.87-.71,1.58-1.58,1.58h-7.87c-.87,0-1.58,.71-1.58,1.58v2.68c0,.87,.71,1.58,1.58,1.58h10.97c.87,0,1.58,.71,1.58,1.58Zm-24.07,11.94v4.34c0,.87,.71,1.58,1.58,1.58h13.51c.87,0,1.58-.71,1.58-1.58v-4.34c0-.87-.71-1.58-1.58-1.58h-13.51c-.87,0-1.58,.71-1.58,1.58Z"/></svg>