<?xml version="1.0" encoding="UTF-8"?><svg id="strawberryPicking" xmlns="http://www.w3.org/2000/svg" viewBox="0 0 120 120"><defs><style>.cls-1,.cls-2{fill:#fff;}.cls-3{fill:none;stroke-width:3px;}.cls-3,.cls-2{stroke:#fff;stroke-miterlimit:10;}</style></defs><path class="cls-1" d="M101.84,17.97l-4.1,.45c-8.76,.96-17.43-1.96-22.61-3.7-1.66-.56-2.97-1-3.8-1.14-2.63-.46-6.79,1.18-8.63,1.98l2.35-11.05h-11.08l2.35,11.05c-1.84-.81-6-2.44-8.63-1.98-.83,.14-2.14,.58-3.8,1.14-5.18,1.75-13.85,4.66-22.61,3.7l-4.1-.45,19.68,7.19-3.59,8.35,18.07-6.68,8.18,10.37,8.18-10.37,18.07,6.68-3.59-8.35,19.68-7.19Z"/><g><path class="cls-3" d="M33.28,23.19c-10.86,5.92-14.99,19.25-13.66,30.95,1.89,16.57,12.24,32.24,22.4,44.97,2.69,3.37,5.51,6.63,8.51,9.73,2.46,2.54,5.61,6.31,9.38,6.65"/><path class="cls-3" d="M86.63,23.19c10.86,5.92,14.99,19.25,13.66,30.95-1.89,16.57-12.24,32.24-22.4,44.97-2.69,3.37-5.51,6.63-8.51,9.73-2.46,2.54-5.61,6.31-9.38,6.65"/></g><path class="cls-2" d="M33.74,56.19s7.87-13.5,0-13.5c-7.87,0,0,13.5,0,13.5Z"/><path class="cls-2" d="M60,56.19s7.87-13.5,0-13.5c-7.87,0,0,13.5,0,13.5Z"/><path class="cls-2" d="M87,56.19s7.87-13.5,0-13.5c-7.87,0,0,13.5,0,13.5Z"/><path class="cls-2" d="M40.37,76.64s7.87-13.5,0-13.5,0,13.5,0,13.5Z"/><path class="cls-2" d="M60,76.64s7.87-13.5,0-13.5,0,13.5,0,13.5Z"/><path class="cls-2" d="M78.63,76.64s7.87-13.5,0-13.5,0,13.5,0,13.5Z"/><path class="cls-2" d="M51.41,97.6s6.37-14.27-1.45-13.42c-7.83,.85,1.45,13.42,1.45,13.42Z"/><path class="cls-2" d="M68.79,97.62s8.91-12.84,1.05-13.46c-7.85-.62-1.05,13.46-1.05,13.46Z"/></svg>